# xmcd
#
# Track frame offsets:
#	150
#	11612
#	28137
#	46785
#	58632
#	81332
#	96600
#	116797
#	129247
#	143247
#	156865
#	168442
#
# Disc length: 2442 seconds
#
# Revision: 0
# Processed by: cddbd v1.4PL0 Copyright (c) Steve Scherf et al.
# Submitted via: dBpowerAMP V4.0
#
DISCID=a109880c
DTITLE=Larry Gatlin and The Gatlin Brothers - 36 All-Time Favorites Disk 2
DYEAR=1900
DGENRE=Country
TTITLE0=Night Time Magic
TTITLE1=Do It Again Tonight
TTITLE2=I've Done Enough Dyin' Today
TTITLE3=All The Gold In California
TTITLE4=The Midnight Choir
TTITLE5=Taking Somebody With Me When I Fall
TTITLE6=We're Number One
TTITLE7=Take Me To Your Lovin' Place
TTITLE8=It Don't Get No Better Than This
TTITLE9=Wind Is Bound To Change
TTITLE10=What Are We Doin Lonsome
TTITLE11=In Like With Each Other
EXTD=
EXTT0=
EXTT1=
EXTT2=
EXTT3=
EXTT4=
EXTT5=
EXTT6=
EXTT7=
EXTT8=
EXTT9=
EXTT10=
EXTT11=
PLAYORDER=
